<?xml version="1.0" encoding="UTF-8" standalone="no"?>
<svg
   xmlns:dc="http://purl.org/dc/elements/1.1/"
   xmlns:cc="http://creativecommons.org/ns#"
   xmlns:rdf="http://www.w3.org/1999/02/22-rdf-syntax-ns#"
   xmlns:svg="http://www.w3.org/2000/svg"
   xmlns="http://www.w3.org/2000/svg"
   xmlns:sodipodi="http://sodipodi.sourceforge.net/DTD/sodipodi-0.dtd"
   xmlns:inkscape="http://www.inkscape.org/namespaces/inkscape"
   version="1.1"
   x="0px"
   y="0px"
   viewBox="0 0 64 64"
   enable-background="new 0 0 64 64"
   xml:space="preserve"
   id="svg8"
   sodipodi:docname="beer.svg"
   width="64"
   height="64"
   inkscape:version="0.92.0 r15299"><metadata
     id="metadata14"><rdf:RDF><cc:Work
         rdf:about=""><dc:format>image/svg+xml</dc:format><dc:type
           rdf:resource="http://purl.org/dc/dcmitype/StillImage" /><dc:title></dc:title></cc:Work></rdf:RDF></metadata><defs
     id="defs12" /><sodipodi:namedview
     pagecolor="#ffffff"
     bordercolor="#666666"
     borderopacity="1"
     objecttolerance="10"
     gridtolerance="10"
     guidetolerance="10"
     inkscape:pageopacity="0"
     inkscape:pageshadow="2"
     inkscape:window-width="2560"
     inkscape:window-height="1330"
     id="namedview10"
     showgrid="false"
     inkscape:zoom="1.475"
     inkscape:cx="-243.47942"
     inkscape:cy="56.369971"
     inkscape:window-x="-12"
     inkscape:window-y="-12"
     inkscape:window-maximized="1"
     inkscape:current-layer="svg8" /><circle
     style="opacity:1;fill:#000000;fill-opacity:1;fill-rule:nonzero;stroke:none;stroke-width:0.01333333;stroke-linecap:round;stroke-linejoin:round;stroke-miterlimit:4;stroke-dasharray:none;stroke-opacity:1"
     id="path4482"
     cx="32"
     cy="32"
     r="32" /><path
     d="M 52.218262,29.472717 H 46.321268 V 26.52422 c 2.021827,-1.347884 3.369711,-3.706681 3.369711,-6.318207 0,-4.212137 -3.369711,-7.581847 -7.581848,-7.581847 -0.505457,0 -1.095156,0.08424 -1.600612,0.168485 -1.600613,-4.1278951 -5.644266,-6.9079061 -10.193374,-6.9079061 -4.549109,0 -8.592762,2.780011 -10.193374,6.9079061 -0.505457,-0.08424 -1.095156,-0.168485 -1.600613,-0.168485 -4.212137,0 -7.581848,3.36971 -7.581848,7.581847 0,2.611526 1.347885,4.970323 3.369711,6.318207 v 25.694042 c 0,3.285468 2.611525,5.896993 5.896992,5.896993 h 20.218263 c 3.285467,0 5.896992,-2.611525 5.896992,-5.896993 v -7.581848 h 2.527284 c 2.358797,0 4.212137,-1.853341 4.212137,-4.212138 V 30.315144 c 0,-0.505456 -0.33697,-0.842427 -0.842427,-0.842427 z M 12.624166,20.206013 c 0,-3.285467 2.611525,-5.896992 5.896992,-5.896992 0.5897,0 1.179399,0.08424 1.853341,0.336971 0.252728,0.08424 0.421214,0.08424 0.673942,-0.08424 0.168486,-0.08424 0.336971,-0.252728 0.421214,-0.505457 1.179399,-3.875166 4.717595,-6.4866919 8.84549,-6.4866919 4.127895,0 7.66609,2.6115259 8.84549,6.4866919 0.08424,0.252729 0.252728,0.421214 0.421213,0.505457 0.168485,0.08424 0.421214,0.08424 0.673942,0.08424 0.673943,-0.252729 1.263641,-0.336971 1.853341,-0.336971 3.285468,0 5.896993,2.611525 5.896993,5.896992 0,3.285468 -2.611525,5.896994 -5.896993,5.896994 H 28.630289 c -0.505457,0 -0.842427,0.336971 -0.842427,0.842427 v 10.109131 c 0,1.432127 -1.095156,2.527283 -2.527283,2.527283 -1.432127,0 -2.527282,-1.095156 -2.527282,-2.527283 V 26.945434 c 0,-0.505456 -0.336972,-0.842427 -0.842428,-0.842427 h -3.369711 c -3.285467,0 -5.896992,-2.611526 -5.896992,-5.896994 z m 13.478841,28.642539 c 0,0.505457 -0.336971,0.842427 -0.842428,0.842427 -0.505457,0 -0.842427,-0.33697 -0.842427,-0.842427 v -3.369711 c 0,-0.505457 0.33697,-0.842427 0.842427,-0.842427 0.505457,0 0.842428,0.33697 0.842428,0.842427 z m 10.109131,0 c 0,0.505457 -0.336971,0.842427 -0.842428,0.842427 -0.505457,0 -0.842427,-0.33697 -0.842427,-0.842427 V 35.36971 c 0,-0.505457 0.33697,-0.842427 0.842427,-0.842427 0.505457,0 0.842428,0.33697 0.842428,0.842427 z m 15.163696,-8.424276 c 0,1.432126 -1.095156,2.527283 -2.527282,2.527283 H 46.321268 V 31.157573 h 5.054566 z"
     id="path2"
     inkscape:connector-curvature="0"
     style="fill:#ffffff;stroke:none;stroke-width:1" /></svg>