<?xml version="1.0" encoding="UTF-8" standalone="no"?>
<svg
   xmlns:dc="http://purl.org/dc/elements/1.1/"
   xmlns:cc="http://creativecommons.org/ns#"
   xmlns:rdf="http://www.w3.org/1999/02/22-rdf-syntax-ns#"
   xmlns:svg="http://www.w3.org/2000/svg"
   xmlns="http://www.w3.org/2000/svg"
   xmlns:sodipodi="http://sodipodi.sourceforge.net/DTD/sodipodi-0.dtd"
   xmlns:inkscape="http://www.inkscape.org/namespaces/inkscape"
   version="1.1"
   x="0px"
   y="0px"
   viewBox="0 0 64 64"
   xml:space="preserve"
   id="svg16"
   sodipodi:docname="energy_drink.svg"
   width="64"
   height="64"
   inkscape:version="0.92.0 r15299"><metadata
     id="metadata22"><rdf:RDF><cc:Work
         rdf:about=""><dc:format>image/svg+xml</dc:format><dc:type
           rdf:resource="http://purl.org/dc/dcmitype/StillImage" /><dc:title></dc:title></cc:Work></rdf:RDF></metadata><defs
     id="defs20" /><sodipodi:namedview
     pagecolor="#ffffff"
     bordercolor="#666666"
     borderopacity="1"
     objecttolerance="10"
     gridtolerance="10"
     guidetolerance="10"
     inkscape:pageopacity="0"
     inkscape:pageshadow="2"
     inkscape:window-width="2560"
     inkscape:window-height="1330"
     id="namedview18"
     showgrid="false"
     inkscape:zoom="5.5625733"
     inkscape:cx="21.035118"
     inkscape:cy="29.585232"
     inkscape:window-x="-12"
     inkscape:window-y="-12"
     inkscape:window-maximized="1"
     inkscape:current-layer="svg16" /><circle
     style="opacity:1;fill:#000000;fill-opacity:1;fill-rule:nonzero;stroke:none;stroke-width:0.01333333;stroke-linecap:round;stroke-linejoin:round;stroke-miterlimit:4;stroke-dasharray:none;stroke-opacity:1"
     id="path4499"
     cx="32"
     cy="32"
     r="32" /><g
     id="g10"
     transform="matrix(2.1264125,0,0,2.1264125,6.4830508,6.4830508)"
     style="fill:#ffffff;stroke:none;stroke-width:0.47027564"><path
       d="M 19,4 H 5 v 16 h 14 z m -5.04,9.697 c -0.055,0.127 -0.158,0.226 -0.288,0.273 -0.13,0.047 -0.271,0.04 -0.396,-0.022 L 11.671,13.145 7.916,18.778 C 7.82,18.92 7.662,19 7.5,19 7.426,19 7.351,18.983 7.28,18.949 7.055,18.839 6.946,18.579 7.025,18.342 l 3,-9 c 0.046,-0.137 0.149,-0.248 0.283,-0.304 0.135,-0.056 0.285,-0.05 0.415,0.015 l 1.414,0.708 0.872,-4.358 C 13.037,5.262 13.124,5.141 13.248,5.069 13.371,4.997 13.519,4.98 13.657,5.027 l 3,1 c 0.133,0.044 0.24,0.142 0.298,0.27 0.058,0.127 0.059,0.273 0.004,0.401 z"
       id="path2"
       inkscape:connector-curvature="0"
       style="fill:#ffffff;stroke:none;stroke-width:0.47027564" /><path
       d="m 5,21 v 0.5 C 5,22.425 5.575,23 6.5,23 6.869,23 7,23.131 7,23.5 7,23.776 7.224,24 7.5,24 h 9 C 16.776,24 17,23.776 17,23.5 17,23.131 17.131,23 17.5,23 18.425,23 19,22.425 19,21.5 V 21 Z"
       id="path4"
       inkscape:connector-curvature="0"
       style="fill:#ffffff;stroke:none;stroke-width:0.47027564" /><path
       d="m 12.99,10.598 c -0.03,0.153 -0.131,0.283 -0.271,0.351 -0.14,0.068 -0.304,0.068 -0.443,-0.002 l -1.484,-0.742 -1.637,4.911 1.929,-2.894 c 0.14,-0.211 0.416,-0.282 0.64,-0.17 l 1.525,0.763 2.577,-6.013 -1.947,-0.649 z"
       id="path6"
       inkscape:connector-curvature="0"
       style="fill:#ffffff;stroke:none;stroke-width:0.47027564" /><path
       d="M 19,3 V 2.5 C 19,1.575 18.425,1 17.5,1 17.131,1 17,0.869 17,0.5 17,0.224 16.776,0 16.5,0 h -9 C 7.224,0 7,0.224 7,0.5 7,0.869 6.869,1 6.5,1 5.575,1 5,1.575 5,2.5 V 3 Z"
       id="path8"
       inkscape:connector-curvature="0"
       style="fill:#ffffff;stroke:none;stroke-width:0.47027564" /></g></svg>