<?xml version="1.0" encoding="UTF-8" standalone="no"?>
<svg
   xmlns:dc="http://purl.org/dc/elements/1.1/"
   xmlns:cc="http://creativecommons.org/ns#"
   xmlns:rdf="http://www.w3.org/1999/02/22-rdf-syntax-ns#"
   xmlns:svg="http://www.w3.org/2000/svg"
   xmlns="http://www.w3.org/2000/svg"
   xmlns:sodipodi="http://sodipodi.sourceforge.net/DTD/sodipodi-0.dtd"
   xmlns:inkscape="http://www.inkscape.org/namespaces/inkscape"
   version="1.1"
   x="0px"
   y="0px"
   viewBox="0 0 64 64"
   enable-background="new 0 0 100 100"
   xml:space="preserve"
   id="svg8"
   sodipodi:docname="mate.svg"
   width="64"
   height="64"
   inkscape:version="0.92.0 r15299"><metadata
     id="metadata14"><rdf:RDF><cc:Work
         rdf:about=""><dc:format>image/svg+xml</dc:format><dc:type
           rdf:resource="http://purl.org/dc/dcmitype/StillImage" /><dc:title></dc:title></cc:Work></rdf:RDF></metadata><defs
     id="defs12" /><sodipodi:namedview
     pagecolor="#ffffff"
     bordercolor="#666666"
     borderopacity="1"
     objecttolerance="10"
     gridtolerance="10"
     guidetolerance="10"
     inkscape:pageopacity="0"
     inkscape:pageshadow="2"
     inkscape:window-width="2560"
     inkscape:window-height="1330"
     id="namedview10"
     showgrid="false"
     inkscape:zoom="3.776"
     inkscape:cx="87.855247"
     inkscape:cy="46.607494"
     inkscape:window-x="-12"
     inkscape:window-y="-12"
     inkscape:window-maximized="1"
     inkscape:current-layer="svg8" /><circle
     style="opacity:1;fill:#000000;fill-opacity:1;fill-rule:nonzero;stroke:none;stroke-width:0.01333333;stroke-linecap:round;stroke-linejoin:round;stroke-miterlimit:4;stroke-dasharray:none;stroke-opacity:1"
     id="path4482"
     cx="32"
     cy="32"
     r="32" /><path
     d="M 37.794849,19.131313 37.233985,17.697997 C 36.049942,14.582092 35.800669,11.590824 35.800669,10.219825 36.11226,9.9705527 36.299214,9.5966445 36.299214,9.2227363 l -0.06232,-3.1782232 v -0.062319 c -0.06232,-1.1840432 -1.370997,-1.7449064 -4.175311,-1.7449064 -2.555042,0 -3.863722,0.4985446 -4.112995,1.4956346 0,0.062319 -0.06232,0.1869541 -0.06232,0.3115904 l -0.124637,3.1782232 c 0,0.436226 0.186955,0.8101351 0.498545,0.9970891 -0.06232,1.433316 -0.31159,4.362267 -1.433316,7.478172 L 26.266,19.131313 c -1.682588,4.486903 -3.614448,9.534669 -3.614448,13.585345 v 23.24465 c 0,0.186954 0.06232,0.373909 0.124635,0.560863 0.186955,0.311591 1.869544,3.240541 9.223078,3.240541 7.353536,0 9.036125,-2.92895 9.223079,-3.240541 0.06232,-0.186954 0.124636,-0.373909 0.124636,-0.560863 V 32.716658 C 41.4093,28.665982 39.477437,23.618216 37.794849,19.131313 Z m -5.795584,13.834618 c -3.489812,0 -5.608628,0.872453 -6.85499,2.243451 v -2.492724 c 0,-1.557952 0.373908,-3.427495 0.872453,-5.297038 0.872454,0.249272 3.365177,0.997089 5.982537,0.997089 2.61736,0 5.110085,-0.685498 5.982538,-0.997089 0.560863,1.931861 0.872453,3.739086 0.872453,5.297038 v 2.492724 c -1.246361,-1.370998 -3.365177,-2.243451 -6.854991,-2.243451 z m 6.418765,10.46944 c 0,6.044855 -2.056497,8.973806 -6.356446,8.973806 -4.299949,0 -6.418764,-2.928951 -6.418764,-8.973806 0,-5.23472 0.31159,-7.976717 6.356445,-7.976717 6.044856,0 6.418765,2.741997 6.418765,7.976717 z M 29.132633,18.632769 c 1.184044,-3.115906 1.495634,-6.044856 1.557953,-7.727445 0.373908,0.06232 0.872453,0.06232 1.308679,0.06232 0.373909,0 0.810136,0 1.246362,-0.06232 0.06232,1.744907 0.436227,4.611539 1.557953,7.727445 l 0.560863,1.433316 c 0.124636,0.31159 0.249272,0.685498 0.373909,0.997089 -0.311591,-0.06232 -0.623181,-0.186954 -1.059408,-0.373908 -0.747817,-0.311591 -1.557952,-0.623181 -2.61736,-0.623181 -1.059408,0 -2.056498,0.373908 -2.928951,0.685498 -0.373909,0.124637 -0.747817,0.311591 -1.059407,0.373909 0.124636,-0.373909 0.249272,-0.747817 0.436227,-1.121725 z m -1.557952,5.110083 c 0.934772,0 1.807224,-0.373908 2.61736,-0.685499 0.685499,-0.249272 1.370998,-0.560862 1.994179,-0.560862 0.560863,0 1.059407,0.186954 1.682589,0.436226 0.810135,0.311591 1.744906,0.685499 2.92895,0.560863 0.186955,0.498544 0.373909,0.99709 0.498545,1.495634 -0.685499,0.249273 -2.92895,0.872454 -5.23472,0.872454 -2.30577,0 -4.549221,-0.623181 -5.23472,-0.872454 0.124636,-0.436227 0.31159,-0.872453 0.436227,-1.30868 0.06232,0.06232 0.186954,0.06232 0.31159,0.06232 z m 4.424584,33.589454 c -4.736174,0 -6.418763,-1.308679 -6.85499,-1.744906 v -4.050676 c 1.495635,2.181133 3.801404,3.365176 6.85499,3.365176 3.053587,0 5.359357,-1.184043 6.854991,-3.365176 V 55.5874 c -0.436226,0.436227 -2.181133,1.744906 -6.854991,1.744906 z M 28.073226,40.444102 c 0,2.181134 1.807225,3.988358 3.988358,3.988358 2.181133,0 3.988358,-1.807224 3.988358,-3.988358 0,-2.181133 -1.807225,-3.988358 -3.988358,-3.988358 -2.181133,0 -3.988358,1.807225 -3.988358,3.988358 z m 5.421674,0 c 0,0.810136 -0.685499,1.495634 -1.495635,1.495634 -0.810135,0 -1.495633,-0.685498 -1.495633,-1.495634 0,-0.810135 0.685498,-1.495634 1.495633,-1.495634 0.810136,0 1.495635,0.685499 1.495635,1.495634 z m -4.985447,5.297039 c -0.6855,-0.186955 -1.370999,0.249271 -1.495635,0.872453 -0.186954,0.685499 0.249273,1.370997 0.872454,1.495634 1.495633,0.373909 2.92895,0.560863 4.175312,0.560863 2.430406,0 4.112994,-0.498545 4.23763,-0.560863 0.6855,-0.186954 0.99709,-0.934772 0.810136,-1.557952 -0.186955,-0.685499 -0.934772,-0.99709 -1.557953,-0.810135 -0.06232,0.06232 -3.302859,0.997089 -7.041944,0 z"
     id="path2"
     inkscape:connector-curvature="0"
     style="fill:#ffffff;stroke:none;stroke-width:1" /></svg>