<?xml version="1.0" encoding="UTF-8" standalone="no"?>
<svg
   xmlns:dc="http://purl.org/dc/elements/1.1/"
   xmlns:cc="http://creativecommons.org/ns#"
   xmlns:rdf="http://www.w3.org/1999/02/22-rdf-syntax-ns#"
   xmlns:svg="http://www.w3.org/2000/svg"
   xmlns="http://www.w3.org/2000/svg"
   xmlns:sodipodi="http://sodipodi.sourceforge.net/DTD/sodipodi-0.dtd"
   xmlns:inkscape="http://www.inkscape.org/namespaces/inkscape"
   viewBox="0 0 64 63.999999"
   version="1.1"
   x="0px"
   y="0px"
   id="svg10"
   sodipodi:docname="tea.svg"
   width="64"
   height="64"
   inkscape:version="0.92.0 r15299">
  <metadata
     id="metadata16">
    <rdf:RDF>
      <cc:Work
         rdf:about="">
        <dc:format>image/svg+xml</dc:format>
        <dc:type
           rdf:resource="http://purl.org/dc/dcmitype/StillImage" />
        <dc:title></dc:title>
      </cc:Work>
    </rdf:RDF>
  </metadata>
  <defs
     id="defs14" />
  <sodipodi:namedview
     pagecolor="#ffffff"
     bordercolor="#666666"
     borderopacity="1"
     objecttolerance="10"
     gridtolerance="10"
     guidetolerance="10"
     inkscape:pageopacity="0"
     inkscape:pageshadow="2"
     inkscape:window-width="2560"
     inkscape:window-height="1330"
     id="namedview12"
     showgrid="false"
     inkscape:zoom="3.0785021"
     inkscape:cx="84.223197"
     inkscape:cy="14.343476"
     inkscape:window-x="-12"
     inkscape:window-y="-12"
     inkscape:window-maximized="1"
     inkscape:current-layer="svg10" />
  <circle
     style="opacity:1;fill:#000000;fill-opacity:1;fill-rule:nonzero;stroke:none;stroke-width:0.01333333;stroke-linecap:round;stroke-linejoin:round;stroke-miterlimit:4;stroke-dasharray:none;stroke-opacity:1"
     id="path4493"
     cx="32"
     cy="32"
     r="32" />
  <g
     transform="matrix(0.09310224,0,0,0.09310224,-7.9898964,-9.5364028)"
     id="g4"
     style="fill:#ffffff;stroke:none;stroke-width:10.74088001">
    <path
       style="fill:#ffffff;stroke:none;stroke-width:10.74088001"
       d="m 334.838,200.8234 c 0,0 -3.791,0.8531 -9.466,4.1257 -5.302,3.5219 -13.756,8.6197 -20.55,18.8517 -6.96,9.7763 -12.199,25.5042 -9.547,41.9914 1.491,8.0779 3.749,16.1727 7.767,23.4635 4.142,6.9181 8.574,14.0252 13.835,19.7417 l 14.321,14.968 c 3.272,4.4739 7.139,7.6211 9.789,12.1363 5.551,8.4093 8.597,15.6776 7.768,23.3825 -1.533,16.363 -14.703,28.1621 -13.917,27.9137 0,0 3.778,0.073 10.034,-2.1839 5.799,-2.5667 15.775,-6.7239 22.735,-18.447 7.787,-11.4749 7.391,-30.2475 0.971,-44.5804 -2.9,-7.208 -7.288,-14.6589 -12.218,-20.9555 l -13.268,-15.5342 c -16.819,-17.4816 -23.672,-35.6617 -19.985,-53.7238 1.698,-8.7403 4.301,-17.0694 7.201,-22.3302 2.609,-5.4681 4.53,-8.8192 4.53,-8.8192 z m 119.745,0 c 0,0 -3.71,0.8531 -9.385,4.1257 -5.303,3.5219 -13.839,8.6197 -20.633,18.8517 -6.959,9.7763 -12.076,25.5042 -9.465,41.9914 1.533,8.0779 3.748,16.1727 7.767,23.4635 4.142,6.9181 8.574,14.0252 13.835,19.7417 l 14.321,14.968 c 3.272,4.4739 7.139,7.6211 9.79,12.1363 5.55,8.4093 8.595,15.6776 7.767,23.3825 -1.533,16.363 -14.785,28.1621 -13.997,27.9137 0,0 3.817,0.073 10.114,-2.1839 5.799,-2.5667 15.735,-6.7239 22.653,-18.447 7.789,-11.4749 7.473,-30.2475 1.053,-44.5804 -2.942,-7.208 -7.288,-14.6589 -12.218,-20.9555 l -13.268,-15.5342 c -16.819,-17.4816 -23.591,-35.6617 -19.904,-53.7238 1.699,-8.7403 4.262,-17.0694 7.12,-22.3302 2.61,-5.4681 4.45,-8.8192 4.45,-8.8192 z m -185.28,203.5653 c -18.062,0 -32.687,14.6673 -32.687,32.6874 v 93.8534 c 0,62.3861 50.561,112.9481 112.948,112.9481 h 100.65 c 38.897,0 73.231,-19.7271 93.53,-49.6774 1.574,0.3719 2.996,1.0027 4.611,1.2907 3.811,0.6197 7.599,0.8895 11.328,0.8895 37.366,0 70.76,-29.5765 77.43,-70.7946 7.373,-45.3191 -20.505,-87.506 -62.22,-94.2587 -3.811,-0.6198 -7.68,-0.8896 -11.408,-0.8896 -0.579,0 -1.037,0.2917 -1.618,0.3281 -3.024,-14.9129 -15.528,-26.3762 -31.311,-26.3762 H 330.227 v 83.2548 h 31.393 v 95.6339 h -71.443 v -95.6339 h 31.393 v -83.2548 h -52.267 z m 294.182,66.183 c 1.657,0 3.279,0.1089 4.936,0.4157 8.989,1.451 17.025,6.8029 22.493,15.1295 6.213,9.4036 8.581,21.2004 6.634,33.1723 -3.397,20.9612 -19.483,36.7266 -37.461,36.9754 1.864,-8.1608 3.075,-16.6253 3.075,-25.3244 v -60.277 c 0.123,0 0.2,-0.073 0.324,-0.073 z m -327.84,186.3324 c -8.244,0 -14.887,6.6849 -14.887,14.8868 v 4.774 c 0,8.2023 6.685,14.8867 14.887,14.8867 h 328.649 c 8.244,0 14.806,-6.6844 14.806,-14.8867 v -4.774 c 0,-8.2019 -6.603,-14.8868 -14.806,-14.8868 z"
       id="path2"
       inkscape:connector-curvature="0" />
  </g>
</svg>
