<?xml version="1.0" encoding="UTF-8" standalone="no"?>
<svg
   xmlns:dc="http://purl.org/dc/elements/1.1/"
   xmlns:cc="http://creativecommons.org/ns#"
   xmlns:rdf="http://www.w3.org/1999/02/22-rdf-syntax-ns#"
   xmlns:svg="http://www.w3.org/2000/svg"
   xmlns="http://www.w3.org/2000/svg"
   xmlns:sodipodi="http://sodipodi.sourceforge.net/DTD/sodipodi-0.dtd"
   xmlns:inkscape="http://www.inkscape.org/namespaces/inkscape"
   version="1.1"
   x="0px"
   y="0px"
   viewBox="0 0 63.999998 64"
   enable-background="new 0 0 44.532 100"
   xml:space="preserve"
   id="svg8"
   sodipodi:docname="wine.svg"
   width="64"
   height="64"
   inkscape:version="0.92.0 r15299"><metadata
     id="metadata14"><rdf:RDF><cc:Work
         rdf:about=""><dc:format>image/svg+xml</dc:format><dc:type
           rdf:resource="http://purl.org/dc/dcmitype/StillImage" /><dc:title></dc:title></cc:Work></rdf:RDF></metadata><defs
     id="defs12" /><sodipodi:namedview
     pagecolor="#ffffff"
     bordercolor="#666666"
     borderopacity="1"
     objecttolerance="10"
     gridtolerance="10"
     guidetolerance="10"
     inkscape:pageopacity="0"
     inkscape:pageshadow="2"
     inkscape:window-width="2560"
     inkscape:window-height="1330"
     id="namedview10"
     showgrid="false"
     inkscape:zoom="5.3400704"
     inkscape:cx="-15.356568"
     inkscape:cy="44.203699"
     inkscape:window-x="-12"
     inkscape:window-y="-12"
     inkscape:window-maximized="1"
     inkscape:current-layer="svg8" /><circle
     style="opacity:1;fill:#000000;fill-opacity:1;fill-rule:nonzero;stroke:none;stroke-width:0.01333333;stroke-linecap:round;stroke-linejoin:round;stroke-miterlimit:4;stroke-dasharray:none;stroke-opacity:1"
     id="path4482"
     cx="32"
     cy="32"
     r="32" /><path
     d="m 42.452157,58.40545 c 0,0 -8.801816,-0.550114 -9.35193,-4.951022 V 41.35193 C 32.550113,30.349659 51.253974,35.850795 41.35193,4.4943228 H 32 22.64807 C 12.746026,35.850795 31.449886,30.349659 30.899773,41.35193 v 12.102498 c -0.550114,4.400908 -9.35193,4.951022 -9.35193,4.951022 -0.304213,0 -0.550114,0.245901 -0.550114,0.550113 0,0.304213 0.245901,0.550114 0.550114,0.550114 h 9.35193 2.200454 9.35193 c 0.304213,0 0.550114,-0.245901 0.550114,-0.550114 0,-0.304212 -0.245901,-0.550113 -0.550114,-0.550113 z"
     id="path2"
     inkscape:connector-curvature="0"
     style="fill:#ffffff;stroke:none;stroke-width:1" /></svg>